<svg width="220" height="220" viewBox="0 0 220 220" fill="none" xmlns="http://www.w3.org/2000/svg">
<g clip-path="url(#clip0_1_19)">
<g filter="url(#filter0_d_1_19)">
<circle cx="110" cy="110" r="110" fill="#04261B" fill-opacity="0.9" shape-rendering="crispEdges"/>
</g>
<path d="M156.714 159.167V152.962C156.714 143.079 151.221 134.193 142.381 129.772L125.599 121.382V90.0429C125.599 81.7812 121.758 74.2162 115.332 69.3735C115.667 67.5479 116.784 66.0123 118.236 65.5293C128.845 61.999 135.97 52.1115 135.97 40.9245C135.97 24.8994 121.652 12.7593 105.724 15.3493C93.4066 17.3502 84.1134 28.8249 84.1134 42.0346V59.5618C71.1885 73.2371 63.3711 91.7662 63.3711 111.742V141.031C63.3711 148.794 65.5359 156.222 69.5765 162.631C59.8868 166.39 53 175.814 53 186.814V192H151.527C160.105 192 167.085 185.02 167.085 176.443C167.088 172.893 166.125 169.409 164.298 166.366C162.47 163.322 159.849 160.834 156.714 159.167ZM138.747 139.597C143.459 142.394 146.342 147.418 146.342 152.962V155.42L134.594 151.504L138.747 139.597ZM94.4859 42.0346C94.4859 33.8552 100.033 26.7817 107.39 25.5853C117.341 23.9649 125.599 31.623 125.599 40.9245C125.603 44.1914 124.577 47.3764 122.668 50.0271C120.758 52.6777 118.062 54.6592 114.962 55.6899C110.869 57.0513 107.687 60.2221 106.06 64.2502L94.4859 58.4624V42.0346ZM73.7423 111.742C73.7423 95.4541 79.641 80.0689 90.4239 68.0288L106.627 76.1286C111.933 78.7791 115.228 84.1144 115.228 90.0432V127.791L129.406 134.882L124.755 148.227L104.857 141.592V92.7819H94.4855V149.067L110.194 154.303C103.277 161.982 92.3277 165.073 82.119 161.671L81.7906 161.561C76.5943 155.956 73.7423 148.716 73.7423 141.031V111.742ZM151.527 181.629H64.2596C66.3165 175.824 71.7275 171.597 78.15 171.278C78.6105 171.394 83.4745 173.418 90.5656 173.418C102.391 173.418 113.686 167.707 120.656 157.789L150.421 167.71C152.254 168.32 153.849 169.492 154.979 171.059C156.109 172.627 156.716 174.511 156.714 176.443C156.714 179.302 154.387 181.629 151.527 181.629Z" fill="url(#paint0_linear_1_19)"/>
</g>
<defs>
<filter id="filter0_d_1_19" x="-4" y="0" width="228" height="228" filterUnits="userSpaceOnUse" color-interpolation-filters="sRGB">
<feFlood flood-opacity="0" result="BackgroundImageFix"/>
<feColorMatrix in="SourceAlpha" type="matrix" values="0 0 0 0 0 0 0 0 0 0 0 0 0 0 0 0 0 0 127 0" result="hardAlpha"/>
<feOffset dy="4"/>
<feGaussianBlur stdDeviation="2"/>
<feComposite in2="hardAlpha" operator="out"/>
<feColorMatrix type="matrix" values="0 0 0 0 0 0 0 0 0 0 0 0 0 0 0 0 0 0 0.25 0"/>
<feBlend mode="normal" in2="BackgroundImageFix" result="effect1_dropShadow_1_19"/>
<feBlend mode="normal" in="SourceGraphic" in2="effect1_dropShadow_1_19" result="shape"/>
</filter>
<linearGradient id="paint0_linear_1_19" x1="110.043" y1="15" x2="110.043" y2="192" gradientUnits="userSpaceOnUse">
<stop stop-color="white"/>
<stop offset="1" stop-color="#E6E6E6"/>
</linearGradient>
<clipPath id="clip0_1_19">
<rect width="220" height="220" rx="106" fill="white"/>
</clipPath>
</defs>
</svg>
